<svg xmlns="http://www.w3.org/2000/svg" xmlns:xlink="http://www.w3.org/1999/xlink" width="150" zoomAndPan="magnify" viewBox="0 0 112.5 44.999999" height="60" preserveAspectRatio="xMidYMid meet" version="1.0"><defs><g/><clipPath id="2ef5129d3d"><path d="M 2.140625 16.75 L 110.835938 16.75 L 110.835938 37.546875 L 2.140625 37.546875 Z M 2.140625 16.75 " clip-rule="nonzero"/></clipPath><clipPath id="0f537c4a51"><path d="M 3.707031 16.75 L 109.246094 16.75 C 109.664062 16.75 110.0625 16.914062 110.355469 17.207031 C 110.648438 17.503906 110.8125 17.902344 110.8125 18.316406 L 110.8125 35.976562 C 110.8125 36.394531 110.648438 36.792969 110.355469 37.085938 C 110.0625 37.378906 109.664062 37.546875 109.246094 37.546875 L 3.707031 37.546875 C 3.292969 37.546875 2.894531 37.378906 2.597656 37.085938 C 2.304688 36.792969 2.140625 36.394531 2.140625 35.976562 L 2.140625 18.316406 C 2.140625 17.902344 2.304688 17.503906 2.597656 17.207031 C 2.894531 16.914062 3.292969 16.75 3.707031 16.75 Z M 3.707031 16.75 " clip-rule="nonzero"/></clipPath><clipPath id="1b2c4e228e"><path d="M 2.140625 1.742188 L 29 1.742188 L 29 37.585938 L 2.140625 37.585938 Z M 2.140625 1.742188 " clip-rule="nonzero"/></clipPath></defs><g clip-path="url(#2ef5129d3d)"><g clip-path="url(#0f537c4a51)"><path fill="#000000" d="M 2.140625 16.75 L 110.835938 16.75 L 110.835938 37.546875 L 2.140625 37.546875 Z M 2.140625 16.75 " fill-opacity="1" fill-rule="nonzero"/></g></g><g clip-path="url(#1b2c4e228e)"><path fill="#ffb929" d="M 28.539062 16.851562 L 27.929688 11.484375 C 27.820312 10.542969 27.023438 9.828125 26.074219 9.828125 L 23.050781 9.828125 L 23.050781 8.292969 C 23.050781 4.699219 20.128906 1.777344 16.535156 1.777344 C 12.9375 1.777344 10.015625 4.699219 10.015625 8.292969 L 10.015625 9.828125 L 6.996094 9.828125 C 6.046875 9.828125 5.246094 10.542969 5.136719 11.484375 L 2.40625 35.449219 C 2.273438 36.597656 3.175781 37.597656 4.332031 37.597656 L 5.347656 37.597656 C 9.542969 19.589844 22.984375 17.09375 28.539062 16.851562 Z M 22.21875 11.78125 C 22.675781 11.78125 23.050781 12.15625 23.050781 12.613281 C 23.050781 13.074219 22.675781 13.445312 22.21875 13.445312 C 21.761719 13.445312 21.386719 13.074219 21.386719 12.613281 C 21.386719 12.15625 21.761719 11.78125 22.21875 11.78125 Z M 11.679688 8.304688 C 11.679688 5.628906 13.855469 3.449219 16.535156 3.449219 C 19.214844 3.449219 21.386719 5.628906 21.386719 8.304688 L 21.386719 9.835938 L 11.679688 9.835938 Z M 10.847656 11.78125 C 11.308594 11.78125 11.679688 12.15625 11.679688 12.613281 C 11.679688 13.074219 11.308594 13.445312 10.847656 13.445312 C 10.390625 13.445312 10.015625 13.074219 10.015625 12.613281 C 10.015625 12.15625 10.390625 11.78125 10.847656 11.78125 Z M 10.847656 11.78125 " fill-opacity="1" fill-rule="nonzero"/></g><g fill="#ffb929" fill-opacity="1"><g transform="translate(18.39205, 32.96543)"><g><path d="M 0.953125 0 L 7.859375 0 C 8.1875 0 8.3125 -0.140625 8.375 -0.46875 L 8.75 -2.734375 C 8.796875 -2.953125 8.6875 -3.109375 8.46875 -3.109375 L 8.25 -3.109375 C 7.5625 -3.109375 7.328125 -1.03125 6.109375 -1.03125 L 4.578125 -1.03125 C 4.078125 -1.03125 3.859375 -1.5 3.859375 -1.96875 L 3.859375 -8.796875 C 3.859375 -9.46875 4.53125 -9.640625 4.53125 -10.0625 L 4.53125 -10.109375 C 4.53125 -10.296875 4.375 -10.390625 4.171875 -10.390625 L 0.953125 -10.390625 C 0.75 -10.390625 0.59375 -10.296875 0.59375 -10.109375 L 0.59375 -10.0625 C 0.59375 -9.640625 1.1875 -9.46875 1.1875 -8.796875 L 1.1875 -1.59375 C 1.1875 -0.921875 0.59375 -0.75 0.59375 -0.34375 L 0.59375 -0.28125 C 0.59375 -0.109375 0.75 0 0.953125 0 Z M 0.953125 0 "/></g></g></g><g fill="#ffb929" fill-opacity="1"><g transform="translate(27.289393, 32.96543)"><g><path d="M 4.359375 0.140625 C 6.5 0.140625 8.265625 -1.359375 8.265625 -3.5 C 8.265625 -5.65625 6.453125 -7.171875 4.265625 -7.171875 C 2.171875 -7.171875 0.3125 -5.6875 0.3125 -3.53125 C 0.3125 -1.40625 2.125 0.140625 4.359375 0.140625 Z M 4.671875 -0.578125 C 3.484375 -0.578125 2.90625 -3.4375 2.90625 -4.625 C 2.90625 -5.8125 3.140625 -6.453125 3.84375 -6.453125 C 5 -6.453125 5.609375 -3.515625 5.609375 -2.375 C 5.609375 -1.28125 5.359375 -0.578125 4.671875 -0.578125 Z M 4.671875 -0.578125 "/></g></g></g><g fill="#ffb929" fill-opacity="1"><g transform="translate(35.879428, 32.96543)"><g/></g></g><g fill="#ffb929" fill-opacity="1"><g transform="translate(38.747649, 32.96543)"><g><path d="M 7.140625 -5.59375 C 8.171875 -5.859375 8.84375 -6.65625 8.84375 -7.765625 C 8.84375 -9.21875 7.640625 -10.390625 5 -10.390625 L 0.953125 -10.390625 C 0.75 -10.390625 0.59375 -10.296875 0.59375 -10.109375 L 0.59375 -10.0625 C 0.59375 -9.640625 1.1875 -9.46875 1.1875 -8.796875 L 1.1875 -1.59375 C 1.1875 -0.921875 0.59375 -0.75 0.59375 -0.34375 L 0.59375 -0.28125 C 0.59375 -0.109375 0.75 0 0.953125 0 L 4.96875 0 C 8.34375 0 9.875 -1.203125 9.875 -2.921875 C 9.875 -4.328125 8.828125 -5.359375 7.140625 -5.59375 Z M 3.828125 -8.609375 C 3.828125 -9.1875 4.125 -9.375 4.515625 -9.375 L 4.921875 -9.375 C 5.921875 -9.375 6.578125 -8.640625 6.578125 -7.375 C 6.578125 -6.546875 6.09375 -6 5.34375 -6 L 4.609375 -6 C 4.140625 -6 3.828125 -6.28125 3.828125 -6.765625 Z M 5.625 -1.03125 L 4.921875 -1.03125 C 4.25 -1.03125 3.828125 -1.5625 3.828125 -2.265625 L 3.828125 -4.984375 L 4.4375 -4.984375 C 6.1875 -4.984375 7.09375 -3.625 7.09375 -2.546875 C 7.09375 -1.640625 6.5625 -1.03125 5.625 -1.03125 Z M 5.625 -1.03125 "/></g></g></g><g fill="#ffb929" fill-opacity="1"><g transform="translate(48.918132, 32.96543)"><g><path d="M 2.328125 -7.890625 C 3.328125 -7.890625 4 -8.53125 4 -9.359375 C 4 -10.1875 3.328125 -10.8125 2.328125 -10.8125 C 1.3125 -10.8125 0.640625 -10.1875 0.640625 -9.359375 C 0.640625 -8.53125 1.3125 -7.890625 2.328125 -7.890625 Z M 0.765625 0 L 3.90625 0 C 4.125 0 4.28125 -0.109375 4.28125 -0.28125 L 4.28125 -0.34375 C 4.28125 -0.765625 3.609375 -0.9375 3.609375 -1.609375 L 3.609375 -6.796875 C 3.609375 -7.078125 3.375 -7.3125 2.953125 -7.09375 L 0.75 -6.015625 C 0.546875 -5.921875 0.40625 -5.84375 0.40625 -5.6875 L 0.40625 -5.625 C 0.40625 -5.265625 1 -5.0625 1 -4.390625 L 1 -1.609375 C 1 -0.9375 0.40625 -0.765625 0.40625 -0.34375 L 0.40625 -0.28125 C 0.40625 -0.109375 0.546875 0 0.765625 0 Z M 0.765625 0 "/></g></g></g><g fill="#ffb929" fill-opacity="1"><g transform="translate(53.454608, 32.96543)"><g><path d="M 8.3125 -1.59375 L 8.125 -4.125 C 7.953125 -6.453125 6.609375 -7.171875 5.328125 -7.171875 C 4.359375 -7.171875 3.625 -6.78125 3.234375 -6.078125 L 3.234375 -6.765625 C 3.234375 -7.0625 3.046875 -7.3125 2.671875 -7.109375 L 0.625 -6.109375 C 0.421875 -6 0.28125 -5.921875 0.28125 -5.734375 L 0.28125 -5.6875 C 0.28125 -5.265625 1.046875 -5.1875 1.046875 -4.484375 L 1.046875 -1.59375 C 1.046875 -0.921875 0.40625 -0.75 0.40625 -0.328125 L 0.40625 -0.265625 C 0.40625 -0.09375 0.546875 0.015625 0.765625 0.015625 L 3.921875 0.015625 C 4.140625 0.015625 4.28125 -0.09375 4.28125 -0.265625 L 4.28125 -0.328125 C 4.28125 -0.75 3.625 -0.921875 3.625 -1.59375 L 3.625 -4.78125 C 3.625 -5.640625 3.9375 -6.203125 4.578125 -6.203125 C 5.234375 -6.203125 5.515625 -5.671875 5.59375 -4.21875 L 5.734375 -1.59375 C 5.78125 -0.921875 5.21875 -0.75 5.21875 -0.328125 L 5.21875 -0.265625 C 5.21875 -0.09375 5.34375 0.015625 5.5625 0.015625 L 8.484375 0.015625 C 8.703125 0.015625 8.84375 -0.09375 8.84375 -0.265625 L 8.84375 -0.328125 C 8.84375 -0.75 8.359375 -0.921875 8.3125 -1.59375 Z M 8.3125 -1.59375 "/></g></g></g><g fill="#ffb929" fill-opacity="1"><g transform="translate(62.469023, 32.96543)"><g/></g></g><g fill="#ffb929" fill-opacity="1"><g transform="translate(65.337244, 32.96543)"><g><path d="M 4.828125 0.140625 C 7 0.140625 8.859375 -0.953125 8.859375 -2.890625 C 8.859375 -6.984375 3.140625 -5.15625 3.140625 -8.28125 C 3.140625 -9 3.578125 -9.578125 4.5 -9.578125 C 6.3125 -9.578125 5.859375 -6.84375 7.625 -6.84375 C 8.375 -6.84375 8.734375 -7.265625 8.734375 -7.90625 C 8.75 -9.234375 6.96875 -10.53125 4.53125 -10.53125 C 2.125 -10.53125 0.578125 -9.21875 0.578125 -7.359375 C 0.578125 -3.078125 6.328125 -4.890625 6.328125 -2.03125 C 6.328125 -1.28125 5.78125 -0.8125 4.9375 -0.8125 C 2.734375 -0.8125 3.03125 -3.546875 1.453125 -3.5625 C 0.71875 -3.5625 0.390625 -3.140625 0.390625 -2.515625 C 0.390625 -1.21875 2.15625 0.140625 4.828125 0.140625 Z M 4.828125 0.140625 "/></g></g></g><g fill="#ffb929" fill-opacity="1"><g transform="translate(74.615066, 32.96543)"><g><path d="M 3.40625 0.140625 C 5 0.140625 5.84375 -1.046875 5.84375 -2.171875 C 5.84375 -2.4375 5.484375 -2.53125 5.28125 -2.265625 C 5.125 -2 4.890625 -1.734375 4.3125 -1.734375 C 3.953125 -1.734375 3.65625 -2.015625 3.65625 -2.515625 L 3.65625 -6.03125 L 5.171875 -6.03125 C 5.359375 -6.03125 5.5 -6.171875 5.5 -6.375 L 5.5 -6.6875 C 5.5 -6.875 5.359375 -7.03125 5.171875 -7.03125 L 3.65625 -7.03125 L 3.65625 -8.5 C 3.65625 -8.734375 3.5 -8.890625 3.265625 -8.890625 L 2.921875 -8.890625 C 2.734375 -8.890625 2.578125 -8.734375 2.53125 -8.5 C 2.34375 -7.609375 1.640625 -7.03125 0.75 -7.03125 L 0.46875 -7.03125 C 0.265625 -7.03125 0.125 -6.890625 0.125 -6.6875 L 0.125 -6.375 C 0.125 -6.171875 0.28125 -6.03125 0.46875 -6.03125 L 1.03125 -6.03125 L 1.03125 -2.5625 C 1.03125 -0.796875 1.96875 0.140625 3.40625 0.140625 Z M 3.40625 0.140625 "/></g></g></g><g fill="#ffb929" fill-opacity="1"><g transform="translate(80.512481, 32.96543)"><g><path d="M 4.359375 0.140625 C 6.5 0.140625 8.265625 -1.359375 8.265625 -3.5 C 8.265625 -5.65625 6.453125 -7.171875 4.265625 -7.171875 C 2.171875 -7.171875 0.3125 -5.6875 0.3125 -3.53125 C 0.3125 -1.40625 2.125 0.140625 4.359375 0.140625 Z M 4.671875 -0.578125 C 3.484375 -0.578125 2.90625 -3.4375 2.90625 -4.625 C 2.90625 -5.8125 3.140625 -6.453125 3.84375 -6.453125 C 5 -6.453125 5.609375 -3.515625 5.609375 -2.375 C 5.609375 -1.28125 5.359375 -0.578125 4.671875 -0.578125 Z M 4.671875 -0.578125 "/></g></g></g><g fill="#ffb929" fill-opacity="1"><g transform="translate(89.102512, 32.96543)"><g><path d="M 5.265625 -7.171875 C 4.265625 -7.171875 3.578125 -6.65625 3.25 -5.71875 L 3.25 -6.796875 C 3.25 -7.09375 3.109375 -7.296875 2.71875 -7.109375 L 0.65625 -6.15625 C 0.4375 -6.03125 0.328125 -5.90625 0.328125 -5.71875 L 0.328125 -5.6875 C 0.328125 -5.25 1.03125 -5.203125 1.03125 -4.515625 L 1.03125 -1.59375 C 1.03125 -0.921875 0.4375 -0.75 0.4375 -0.34375 L 0.4375 -0.28125 C 0.4375 -0.109375 0.578125 0 0.796875 0 L 3.9375 0 C 4.140625 0 4.296875 -0.109375 4.296875 -0.28125 L 4.296875 -0.34375 C 4.296875 -0.75 3.515625 -0.921875 3.515625 -1.59375 L 3.515625 -4.3125 C 3.515625 -4.96875 3.59375 -5.71875 4.0625 -5.71875 C 4.78125 -5.71875 4.1875 -4.34375 5.515625 -4.34375 C 6.375 -4.34375 6.640625 -5 6.640625 -5.71875 C 6.640625 -6.546875 6.140625 -7.171875 5.265625 -7.171875 Z M 5.265625 -7.171875 "/></g></g></g><g fill="#ffb929" fill-opacity="1"><g transform="translate(95.746252, 32.96543)"><g><path d="M 6.46875 -2.3125 C 6.203125 -1.96875 5.640625 -1.671875 4.90625 -1.671875 C 4.078125 -1.671875 3.4375 -2.125 3.0625 -2.859375 C 3.5 -2.84375 4.015625 -2.875 4.53125 -2.953125 C 5.90625 -3.171875 6.859375 -4.03125 6.859375 -5.046875 C 6.859375 -6.34375 5.6875 -7.1875 3.953125 -7.171875 C 1.984375 -7.15625 0.328125 -5.734375 0.328125 -3.5625 C 0.328125 -1.34375 1.859375 0.140625 4.03125 0.140625 C 6.140625 0.140625 6.96875 -1.296875 7.015625 -2.109375 C 7.03125 -2.4375 6.671875 -2.515625 6.46875 -2.3125 Z M 3.640625 -6.390625 C 4.125 -6.390625 4.5 -5.890625 4.515625 -5.234375 C 4.515625 -4.234375 4.15625 -3.78125 3.515625 -3.65625 C 3.328125 -3.625 3.0625 -3.609375 2.78125 -3.625 C 2.6875 -3.984375 2.65625 -4.359375 2.65625 -4.765625 C 2.65625 -5.71875 3.046875 -6.390625 3.640625 -6.390625 Z M 3.640625 -6.390625 "/></g></g></g><g fill="#ffb929" fill-opacity="1"><g transform="translate(103.048511, 32.96543)"><g><path d="M 3.5625 0.125 C 5.59375 0.125 6.75 -0.8125 6.75 -2.015625 C 6.75 -4.71875 3 -3.65625 3 -5.671875 C 3 -6.09375 3.234375 -6.5 3.6875 -6.5 C 4.703125 -6.5 4.234375 -4.53125 5.65625 -4.53125 C 6.1875 -4.53125 6.625 -4.90625 6.625 -5.421875 C 6.625 -6.375 5.421875 -7.171875 3.5625 -7.171875 C 1.734375 -7.171875 0.46875 -6.25 0.46875 -4.953125 C 0.46875 -2.109375 4.34375 -3.234375 4.34375 -1.3125 C 4.34375 -0.734375 4 -0.515625 3.5625 -0.515625 C 2.34375 -0.515625 2.84375 -2.515625 1.375 -2.515625 C 0.796875 -2.515625 0.34375 -2.234375 0.34375 -1.578125 C 0.34375 -0.5625 1.71875 0.125 3.5625 0.125 Z M 3.5625 0.125 "/></g></g></g></svg>